<?xml version="1.0" encoding="utf-8"?>
<!-- Generator: Adobe Illustrator 19.0.0, SVG Export Plug-In . SVG Version: 6.00 Build 0)  -->
<svg version="1.1" baseProfile="tiny" id="Layer_1" xmlns="http://www.w3.org/2000/svg" xmlns:xlink="http://www.w3.org/1999/xlink"
	 x="0px" y="0px" viewBox="-147 373.4 300 95.5" xml:space="preserve">
<g>
	<polygon fill="#EC2027" points="-128.8,454.8 -138.3,454.8 -138.3,450.2 -135,449.5 -135,429.5 -138.4,428.8 -138.4,424.2 
		-128.9,424.2 -120.6,435.4 -112.5,424.2 -102.9,424.2 -102.9,428.8 -106.3,429.6 -106.3,449.5 -103,450.2 -103,454.8 -112.5,454.8 
		-112.5,433.9 -112.6,433.9 -118.9,442.6 -122.4,442.6 -128.6,433.9 -128.8,433.9 	"/>
	<path fill="#EC2027" d="M-79.7,449.6v-8.3c0,0,0.1-3.6-1.9-6.1c-2.1-2.5-5.1-2.7-7.3-2.7c-2.2,0-6,0.9-8.2,2.2l2,4.5
		c0,0,3.3-2,5.9-2c2.6,0,3.7,1.9,3.7,3.5c0,0-13.3-0.2-13.3,8.2c0,0,0,6.4,7.7,6.4c0,0,3.4,0,6.4-2.1h0.2l0.3,1.6h7.3v-4.6
		L-79.7,449.6z M-85.5,448.2c0,0-1.7,2.1-4.3,2.1c-2.6,0-3.2-1-3.2-1.9s0.8-1.7,1.8-2.1s3.9-1.2,5.7-1.2
		C-85.5,445.2-85.5,448.2-85.5,448.2z"/>
	<path fill="#EC2027" d="M-72.3,455.8"/>
	<path fill="#EC2027" d="M-63,451.4v-0.6c4.1-0.4,7.6-3.4,8.3-7.5c0.4-2.2,0-4.3-1.1-6.1h3.6v-4.8h-11.7c-4.7-0.2-9,2.9-9.8,7.6
		c-0.7,4.2,1.6,8.3,5.4,10.1v2.3c-1.5,0.6-2.9,1.6-4.1,2.7l3.5,4.1c1.2-1.5,3-2.5,5-2.5c3.5,0,6.4,2.9,6.4,6.4l-0.1,2.2h5.8v-1.5
		C-51.8,456.4-56.7,451.7-63,451.4z M-64,445.9c-2.4,0-4.3-1.9-4.3-4.3s1.9-4.3,4.3-4.3c2.4,0,4.3,1.9,4.3,4.3
		C-59.7,443.9-61.6,445.9-64,445.9z"/>
	<path fill="#EC2027" d="M-34,437.3c-1.9,0-4.9,1.4-4.9,4.4c0,1.2,0,13.2,0,13.2H-48v-4.8l3-0.5v-11.9l-3-0.5v-4.9h8.3l0.3,1.7
		c0,0,2.6-2.1,5.7-2.1s8,1.7,8.6,7.8l0.5,9.8l3.2,0.5v4.8h-9l-0.6-14.1C-31.1,440.8-31.1,437.3-34,437.3z"/>
	<g>
		<path fill="#808285" d="M141.3,432.8c-1.7,0-3.1,1.4-3.1,3.2c0,1.7,1.3,3.1,3.1,3.1s3.1-1.4,3.1-3.2
			C144.3,434.2,143,432.8,141.3,432.8z M141.3,438.7c-1.5,0-2.7-1.3-2.7-2.8s1.2-2.8,2.7-2.8s2.7,1.3,2.7,2.8
			C144,437.5,142.8,438.7,141.3,438.7z"/>
		<path fill="#808285" d="M142,436.3c0.4-0.1,0.7-0.5,0.7-1c0-0.7-0.5-1.1-1.3-1.1H140v3.3h0.7v-1.1h0.6l0.7,1.1h0.8L142,436.3z
			 M141.4,435.8h-0.7v-1h0.7c0.4,0,0.6,0.2,0.6,0.5C142,435.6,141.8,435.8,141.4,435.8z"/>
		<path fill="#808285" d="M1.2,453.2l2.3-0.5V434h-3.8v-1.8h3.8c0,0,0-2.5,0-6s2.3-5.5,4.9-5.5c2.7,0,3.7,0.8,3.7,0.8l-0.7,1.6
			c-1.3-0.7-2.6-0.6-2.6-0.6c-2.5,0-2.9,3-2.9,3.5c0,0.6,0,6.2,0,6.2h5.6v1.8H5.9v18.7l2.3,0.4v1.6H1.3L1.2,453.2L1.2,453.2z"/>
		<g>
			<g>
				<polygon fill="#808285" points="18.1,432.2 13.5,432.2 13.5,433.9 15.8,434.3 15.8,452.7 13.5,453.2 13.5,454.8 20.4,454.8 
					20.4,453.2 18.1,452.8 				"/>
				<polygon fill="#808285" points="19.1,425.3 16.8,423 14.5,425.3 16.8,427.6 				"/>
			</g>
		</g>
		<path fill="#808285" d="M74.1,435.8l-0.2-3.6h-4.4v1.6l2.4,0.4v18.5l-2.4,0.4v1.7h4.6v-14.7c0.2-3.3,4.3-6.5,7.1-6.5
			c5.2,0,5.6,5,5.6,5.6c0,0.5,0.6,15.6,0.6,15.6h4.6v-1.7l-2.4-0.4l-0.6-13.4c0,0-0.1-7.5-7.8-7.5C76.8,431.8,74.1,435.8,74.1,435.8
			z"/>
		<path fill="#808285" d="M27.8,435.8l-0.2-3.6h-4.4v1.6l2.4,0.4v18.5l-2.4,0.4v1.7h4.6v-14.7c0.2-3.3,4.3-6.5,7.1-6.5
			c5.2,0,5.6,5,5.6,5.6c0,0.5,0.6,15.6,0.6,15.6h4.6v-1.7l-2.4-0.4l-0.6-13.4c0,0-0.1-7.5-7.8-7.5C30.3,431.8,27.8,435.8,27.8,435.8
			z"/>
		<path fill="#808285" d="M65.3,452.7L65,439.3c0,0-0.1-7.4-7.8-7.4c0,0-3.9-0.1-7.1,1.9l0.9,1.8c0,0,2.5-1.8,6.2-1.8
			c4.9,0,5.6,5,5.6,5.5c0,0.1,0,0.9,0,2c-0.1,0-0.3,0-0.6,0c-1.7,0-5.9,0.1-9.3,1.3c-4.2,1.4-5.9,4-5.3,7.8c0.5,2.8,3.1,4.7,6.6,4.7
			c0.6,0,1.2,0,1.7-0.1s3.4-0.6,7.1-3.5c0,1.9,0,3.2,0,3.2h4.5V453L65.3,452.7z M55.8,453.2c-2.3,0.5-5.6-0.2-6-3
			c-0.3-2.3,0.1-4.4,3.9-5.8c3.9-1.4,9.1-1.2,9.1-1.2l0,0c0,1.8,0.1,4,0.1,5.9C59,452.7,55.8,453.2,55.8,453.2z"/>
		<g>
			<g>
				<path fill="#808285" d="M110.3,432.8c-2.1-1-5.6-0.7-6.2-0.7c-1.8,0-5.2,1.2-7,3.3c-1.8,2.1-2.9,5-2.9,8.1
					c0,3.2,1.1,6.1,2.9,8.2s5.3,3.3,7,3.3c0.2,0,0.5,0,1,0l0,0c1.4,0,4.1-0.1,6.6-1.5l-0.7-1.8c-3.2,1.9-6.6,1.4-6.6,1.4
					c-4.4,0-7.9-3.9-7.9-9.7c0-5.8,3.5-9.7,7.9-9.7c0,0,3.2-0.2,4.9,0.6l0.4,2.8h1.8v-3.9L110.3,432.8z"/>
			</g>
		</g>
		<path fill="#808285" d="M136.3,443.4c0.2-9.5-7.1-11.5-10.2-11.5c-3.4,0-6.6,1.3-8.4,3.4s-2.9,5.1-2.9,8.3s1.1,6.1,2.9,8.3
			c1.9,2.1,5.6,3.3,7.3,3.3c0.2,0,1.6,0,2,0c1.5,0,4.5-0.5,7-1.9l-0.7-1.8c-3.4,2.2-8,1.8-8,1.8c-4,0-7.8-3.3-8.2-8.9h19.1
			C136.3,444.2,136.3,443.4,136.3,443.4z M117,442.7c0.3-5.4,3.5-9,9.1-9c3.8,0,7.8,2.7,8,9H117z"/>
	</g>
	<path fill="#EC2027" d="M11,400c0-12.7-10.3-23-23.1-23c-12.7,0-23,10.3-23,23c0,11.7,8.8,21.4,20.1,22.8v26.6l-3.3,0.5v4.9h12.6
		v-4.9l-3.3-0.5v-26.5C2.2,421.4,11,411.8,11,400z M-12,419.1c-0.6,0-1.1,0-1.6-0.1c-7.3-0.6-13.5-5.3-16.1-11.8
		c-0.2-0.4-0.5-1.2-0.6-1.7c-0.1-0.2-0.3-1-0.4-1.5c0,0,0,0,0-0.1c0-0.2-0.1-0.3-0.1-0.4s0-0.4-0.1-0.6c-0.1-0.7-0.2-1.4-0.2-2.1
		l0,0l0,0c0-0.2,0-0.4,0-0.6c0-3.5,1-6.9,2.7-9.7c0.1-0.1,0.1-0.2,0.2-0.3c3.2-5.1,8.7-8.6,15-8.9l0,0c0.4,0,0.7,0,1.1,0l0,0l0,0
		l0,0c1.3,0,2.6,0.1,3.8,0.4c1.4,0.3,2.7,0.7,3.9,1.3c0.4,0.2,0.8,0.3,1.2,0.6c0.2,0.1,0.5,0.3,0.7,0.4c0.3,0.2,0.6,0.3,0.8,0.5l0,0
		c5.1,3.4,8.5,9.2,8.5,15.8c0,9.4-7.1,17.3-15.6,18.7C-10.3,419.1-11.4,419.1-12,419.1z M-17.1,397.8l1.5,2c1.9-0.6,3.7-1.3,5.4-2.1
		h0.1c1.2-0.6,2.3-1.2,3.4-1.9l1,2.8l3.8-8.1l-8.7,2.3l2.3,1.3c-0.6,0.3-1.1,0.6-1.6,0.9C-12.1,396.1-14.5,397.1-17.1,397.8z
		 M-2.7,404.6l-9-1l1.8,2.1c-0.5,0.2-1,0.4-1.5,0.6h-0.1c-0.2,0.1-0.3,0.1-0.5,0.2s-0.5,0.2-0.7,0.4c-0.2,0.1-0.5,0.3-0.7,0.4
		s-0.4,0.2-0.6,0.3l0,0c-3,1.8-5.2,3.9-6.7,5.3c-0.3,0.3-0.6,0.7-0.9,1l2,1.2c1.4-1.4,3.9-3.8,7.1-5.7c0.3-0.2,0.6-0.4,0.9-0.5
		c0.2-0.1,0.3-0.2,0.5-0.3c0.6-0.3,1.3-0.6,1.9-0.9v3L-2.7,404.6z M4.1,395.9c-2.2-0.4-4.2-1-6-1.9l-1,2c2.2,1.1,4.6,1.9,7.4,2.2
		C4.5,397.6,4.3,396.7,4.1,395.9z M-23.5,392.2c0,0.5,0,0.9,0.1,1.4l1.1-0.9l1.2,0.2c0-0.3,0-0.6,0-0.8c-0.2-3.3,0.4-5.6,1.3-6.8
		c-0.3,0.1-0.5,0.3-0.8,0.4l-1.8,1.2c-0.2,0.2-0.5,0.4-0.7,0.6C-23.4,388.8-23.6,390.4-23.5,392.2z M3.8,403.6
		c-1.9-0.2-3.7-0.2-5.4,0l0.5,1.1l-0.6,1.3c1.6-0.2,3.2-0.3,4.9-0.1h0.6c0-0.1,0-0.1,0.1-0.2l0.5-1.9v-0.1
		C4,403.7,3.8,403.6,3.8,403.6z M-0.3,387.5c-0.4,0.3-1.9,1.3-2.2,1.7l1.6,0.6l0.3,1.3c0.5-0.5,1.6-1.5,1.9-1.9
		C0.8,388.6,0.3,388.1-0.3,387.5z M-6.4,416l3.7-1.9c-1.9,0.1-4.5-0.5-7.2-2.1c0,0-1.3-0.7-1.7-1.3l-2.1,1.4c1.5,1.3,3,2.2,4.7,2.9
		C-8.1,415.5-7.2,415.8-6.4,416z M-29.1,400.7c1.4,0.2,2.8,0.3,4.1,0.4l0.5-2.3c-1.4,0-2.9-0.1-4.5-0.4L-29.1,400.7z M-15.5,383.7
		c1,1.8,2.8,4.5,5.5,7.2l2.6-0.6c-2.6-2.4-4.5-5-5.6-6.9C-13.9,383.4-14.8,383.5-15.5,383.7z M-20.1,404.3l0.1,0.1
		c0.2,0.4,0.5,0.9,0.7,1.3c0.7,1.2,0.9,1.5,1.8,2.5l2.1-1.1c-0.6-0.8-1.3-1.7-1.9-2.6c-0.6-0.9-0.9-1.5-1.2-2.1v-0.1
		c-0.3-0.6-0.5-1.1-0.8-1.7l2.8,0.4l-5.6-7.3l-1.9,8.9l2.4-1.5C-21.1,402.3-20.7,403.3-20.1,404.3z"/>
</g>
</svg>
